<?xml version="1.0" standalone="no"?><!DOCTYPE svg PUBLIC "-//W3C//DTD SVG 1.1//EN" "http://www.w3.org/Graphics/SVG/1.1/DTD/svg11.dtd"><svg t="1575607591119" class="icon" viewBox="0 0 1294 1024" version="1.1" xmlns="http://www.w3.org/2000/svg" p-id="2124" data-spm-anchor-id="a313x.7781069.0.i2" xmlns:xlink="http://www.w3.org/1999/xlink" width="50.546875" height="40"><defs><style type="text/css"></style></defs><path d="M1194.105 890.948h-1111.579c-27.789 0-50.527 22.737-50.527 50.527s22.737 50.527 50.527 50.527h1111.579c27.789 0 50.527-22.737 50.527-50.527s-22.737-50.527-50.527-50.527z" fill="#d81e06" p-id="2125" data-spm-anchor-id="a313x.7781069.0.i7" class="selected"></path><path d="M1194.105 335.157h-202.104c-27.789 0-50.527 22.737-50.527 50.527v404.211c0 27.789 22.737 50.527 50.527 50.527h202.104c27.789 0 50.527-22.737 50.527-50.527v-404.211c0-27.789-22.737-50.527-50.527-50.527zM1093.052 739.368c-35.368 0-60.632-7.579-78.316-20.211-17.684-15.158-25.263-45.473-25.263-80.843h75.789c0 15.158 2.527 32.843 5.052 40.421 2.527 7.579 10.104 12.632 17.684 12.632 10.105 0 17.684-5.052 20.211-15.157 0-5.053 2.527-15.157 2.527-30.316 0-15.158-2.527-22.737-7.579-30.316-5.052-5.052-12.632-7.579-22.737-7.579h-20.211v-48h12.633c12.633 0 22.737-2.527 27.789-7.579s7.579-17.684 7.579-32.843c0-20.211-7.579-32.842-20.211-32.842-7.579 0-12.632 2.527-17.684 10.105-2.527 5.052-5.052 20.211-5.052 35.368h-73.263c2.527-60.632 32.842-93.473 96-93.473 35.368 0 63.158 7.579 78.316 20.211 12.632 12.632 20.211 32.842 20.211 60.632 0 15.158-2.527 25.263-10.105 35.368-7.579 12.632-17.684 20.211-32.842 22.737v0c32.842 5.052 48 27.789 48 65.684 2.527 63.157-30.316 96-98.527 96z" fill="#B5A642" p-id="2126" data-spm-anchor-id="a313x.7781069.0.i3" class=""></path><path d="M436.211 840.42h404.211c27.789 0 50.527-22.737 50.527-50.527v-707.367c0-27.789-22.737-50.527-50.527-50.527h-404.211c-27.789 0-50.527 22.737-50.527 50.527v707.367c0 27.789 22.737 50.527 50.527 50.527zM537.263 254.316c32.842 0 55.58-5.052 70.737-12.632 15.158-7.579 25.263-35.368 32.843-58.105h73.263v404.211h-106.106v-270.316h-70.737v-63.157z" fill="#D9D919" p-id="2127" data-spm-anchor-id="a313x.7781069.0.i0" class=""></path><path d="M82.527 840.42h202.104c27.789 0 50.527-22.737 50.527-50.527v-505.263c0-27.789-22.737-50.527-50.527-50.527h-202.104c-27.789 0-50.527 22.737-50.527 50.527v505.263c0 27.789 22.737 50.527 50.527 50.527zM128 547.368l53.052-60.632c15.157-17.684 22.737-35.368 22.737-55.58 0-25.262-7.579-37.895-20.211-37.895-15.158 0-22.737 15.157-22.737 45.473v15.158h-75.789c0-40.422 7.579-68.211 20.211-83.368 15.158-25.263 40.421-35.368 80.843-35.368 37.895 0 63.157 10.105 80.842 27.789 12.632 15.158 20.211 37.895 20.211 65.684 0 40.422-12.632 73.263-37.895 101.052l-47.999 53.052c-5.052 5.052-10.105 10.105-10.104 12.632-5.052 5.052-7.579 0-7.579 2.527h101.052v90.948h-202.104c0-53.051 15.158-106.105 45.473-141.473z" fill="#E6E8FA" p-id="2128" data-spm-anchor-id="a313x.7781069.0.i1" class=""></path></svg>