<?xml version="1.0" standalone="no"?><!DOCTYPE svg PUBLIC "-//W3C//DTD SVG 1.1//EN" "http://www.w3.org/Graphics/SVG/1.1/DTD/svg11.dtd"><svg t="1575797123422" class="icon" viewBox="0 0 1024 1024" version="1.1" xmlns="http://www.w3.org/2000/svg" p-id="2098" width="16" height="16" xmlns:xlink="http://www.w3.org/1999/xlink"><defs><style type="text/css"></style></defs><path d="M341.333333 750.933333h341.333334v-68.266666H341.333333v68.266666z m0-273.066666h341.333334V409.6H341.333333v68.266667z m525.1072-477.866667H157.559467A157.969067 157.969067 0 0 0 0 157.559467v708.881066A157.969067 157.969067 0 0 0 157.559467 1024h708.881066A157.969067 157.969067 0 0 0 1024 866.440533V157.559467A157.969067 157.969067 0 0 0 866.440533 0zM750.933333 512c0 19.114667-15.018667 34.133333-34.133333 34.133333H341.333333v68.266667h375.466667c19.114667 0 34.133333 15.018667 34.133333 34.133333v136.533334c0 19.114667-15.018667 34.133333-34.133333 34.133333h-409.6c-19.114667 0-34.133333-15.018667-34.133333-34.133333v-409.6c0-19.114667 15.018667-34.133333 34.133333-34.133334h409.6c19.114667 0 34.133333 15.018667 34.133333 34.133334v136.533333z m68.266667-204.8c0 19.114667-15.018667 34.133333-34.133333 34.133333s-34.133333-15.018667-34.133334-34.133333V273.066667H273.066667v34.133333c0 19.114667-15.018667 34.133333-34.133334 34.133333S204.8 326.314667 204.8 307.2v-68.266667c0-19.114667 15.018667-34.133333 34.133333-34.133333H477.866667v-34.133333c0-19.114667 15.018667-34.133333 34.133333-34.133334s34.133333 15.018667 34.133333 34.133334V204.8h238.933334c19.114667 0 34.133333 15.018667 34.133333 34.133333v68.266667z" fill="#5fdaff" p-id="2099"></path></svg>