<?xml version="1.0" standalone="no"?><!DOCTYPE svg PUBLIC "-//W3C//DTD SVG 1.1//EN" "http://www.w3.org/Graphics/SVG/1.1/DTD/svg11.dtd"><svg t="1575799785859" class="icon" viewBox="0 0 1025 1024" version="1.1" xmlns="http://www.w3.org/2000/svg" p-id="7393" xmlns:xlink="http://www.w3.org/1999/xlink" width="16.015625" height="16"><defs><style type="text/css"></style></defs><path d="M832.568 639.735c-62.842 0-118.636 30.177-153.69 76.825L376.936 565.076c4.773-16.755 7.329-34.442 7.329-52.727 0-20.032-3.069-39.343-8.756-57.494l300.8-150.919c34.862 48.632 91.854 80.324 156.259 80.324 106.112 0 192.131-86.016 192.131-192.128S938.68 0 832.568 0 640.435 86.02 640.435 192.132c0 7.34 0.43 14.58 1.226 21.71l-317.25 159.17c-34.45-32.717-81.018-52.795-132.278-52.795C86.02 320.217 0 406.237 0 512.35s86.02 192.128 192.133 192.128c53.12 0 101.211-21.562 135.99-56.416l314.1 157.588a193.244 193.244 0 0 0-1.788 26.22C640.435 937.98 726.45 1024 832.563 1024c106.112 0 192.131-86.02 192.131-192.132S938.68 639.735 832.568 639.735z m0 0" fill="#8a8a8a" p-id="7394"></path></svg>