<?xml version="1.0" standalone="no"?><!DOCTYPE svg PUBLIC "-//W3C//DTD SVG 1.1//EN" "http://www.w3.org/Graphics/SVG/1.1/DTD/svg11.dtd"><svg t="1575101840512" class="icon" viewBox="0 0 1024 1024" version="1.1" xmlns="http://www.w3.org/2000/svg" p-id="12830" xmlns:xlink="http://www.w3.org/1999/xlink" width="40" height="40"><defs><style type="text/css"></style></defs><path d="M450.456566 469.591919c54.820202 0.517172 99.814141 7.240404 140.153535 31.030303 63.612121 36.20202 76.024242 102.4 28.961616 158.771717-39.822222 48.614141-94.125253 71.369697-154.634343 78.610101-57.406061 7.240404-113.260606 0.517172-164.460606-29.478787-81.19596-47.062626-86.367677-132.39596-11.377778-188.767677 50.682828-37.236364 109.123232-48.614141 161.357576-50.165657z m-33.616162 239.967677c34.133333 0.517172 66.715152-11.894949 91.539394-35.167677 25.858586-24.307071 31.030303-54.820202 23.272727-87.40202-6.723232-31.547475-31.030303-55.854545-62.060606-63.09495-32.581818-8.791919-67.749495-4.654545-97.745454 10.860607-41.890909 21.20404-63.094949 72.40404-51.717172 121.535353 7.240404 29.99596 43.442424 51.717172 88.953535 53.785859 2.585859-0.517172 5.171717-0.517172 7.757576-0.517172z" fill="#F2260B" p-id="12831"></path><path d="M383.741414 671.806061c-14.99798-1.551515-29.99596-7.240404-32.064646-27.410101-1.551515-19.135354 18.618182-38.787879 39.822222-39.822223s37.236364 12.412121 37.236364 29.99596-20.686869 36.20202-44.99394 37.236364z" fill="#F2290E" p-id="12832"></path><path d="M450.456566 615.951515c-9.309091 0-14.480808-4.137374-14.99798-11.894949-1.034343-9.309091 5.688889-17.066667 14.99798-18.10101h2.068687c6.723232-0.517172 11.894949 4.654545 12.412121 11.377777v2.068687c0.517172 8.274747-6.206061 15.515152-14.480808 16.549495z" fill="#F33920" p-id="12833"></path><path d="M512 0C229.107071 0 0 229.107071 0 512s229.107071 512 512 512 512-229.107071 512-512S794.892929 0 512 0z m233.761616 629.915152c-24.824242 54.30303-70.335354 85.333333-122.569697 108.60606-51.2 22.755556-111.709091 34.650505-178.424242 34.650505-53.268687-2.068687-116.363636-11.377778-174.804041-38.787879-99.29697-46.545455-131.878788-142.739394-78.092929-237.89899 38.787879-68.783838 94.125253-126.189899 161.357576-167.046464 23.272727-14.99798 49.648485-24.824242 76.541414-28.961616 50.165657-7.240404 77.575758 19.652525 72.40404 69.818181-3.620202 36.20202-3.10303 36.719192 32.581819 23.789899 25.858586-9.309091 52.234343-17.583838 80.161616-17.066666 48.09697 1.551515 73.438384 36.719192 54.30303 80.678788-8.791919 20.169697-5.688889 25.858586 14.480808 32.064646 68.266667 21.721212 91.539394 74.989899 62.060606 140.153536zM665.6 356.848485c-6.206061 0-11.894949 0.517172-18.10101 0-10.343434-0.517172-14.99798-7.240404-15.515152-17.066667s3.620202-17.583838 13.446465-19.135353c30.513131-4.654545 60.509091-4.137374 84.816162 18.618181 25.341414 23.789899 26.892929 54.30303 23.272727 85.850506-1.034343 10.860606-8.274747 16.549495-19.652525 15.515151s-16.032323-8.274747-16.549495-19.135354c-0.517172-5.171717 1.034343-10.343434 1.034343-15.515151-0.517172-35.684848-16.549495-51.2-52.751515-49.131313z m181.010101 97.745454c-4.654545 17.583838-18.10101 24.307071-36.20202 19.652526-18.618182-5.171717-16.549495-20.169697-13.446465-33.616162 3.620202-16.032323 9.309091-31.547475 8.274748-48.09697-5.688889-72.40404-68.783838-126.189899-141.187879-119.983838-5.688889 0.517172-11.894949 1.551515-17.583839 2.585859-19.652525 4.137374-35.684848 2.585859-40.856565-18.618182-5.688889-23.272727 11.377778-33.616162 29.478788-37.753536 28.444444-7.240404 58.440404-7.757576 86.884848-1.551515 77.575758 18.10101 138.084848 92.573737 136.533334 174.286869 2.068687 18.618182-5.688889 40.856566-11.89495 63.094949z" fill="#F2260B" p-id="12834"></path></svg>