<?xml version="1.0" standalone="no"?><!DOCTYPE svg PUBLIC "-//W3C//DTD SVG 1.1//EN" "http://www.w3.org/Graphics/SVG/1.1/DTD/svg11.dtd"><svg t="1575100998169" class="icon" viewBox="0 0 1024 1024" version="1.1" xmlns="http://www.w3.org/2000/svg" p-id="9200" xmlns:xlink="http://www.w3.org/1999/xlink" width="40" height="40"><defs><style type="text/css"></style></defs><path d="M511.470121 0.000265a511.999868 511.999868 0 1 0 512.529614 511.999867A511.999868 511.999868 0 0 0 511.470121 0.000265z m-90.586629 632.517167a375.590177 375.590177 0 0 1-76.813224-10.859801l-76.813224 38.406612 21.984475-65.953423a179.58402 179.58402 0 0 1-87.673025-147.799238c0-104.095162 98.797698-185.41123 219.314998-185.411229 107.803386 0 202.098241 65.423677 221.16911 153.626447a185.41123 185.41123 0 0 0-21.189855 0 179.319147 179.319147 0 0 0-185.41123 172.432444 157.334672 157.334672 0 0 0 6.62183 45.823061 175.346049 175.346049 0 0 1-20.395236 0z m323.410159 76.813224l16.422138 54.828749-60.126213-33.109148A277.322225 277.322225 0 0 1 635.695645 741.645184c-104.360035 0-185.41123-71.250887-185.41123-158.923911s82.110688-158.923911 185.41123-158.923911c98.532825 0 185.41123 71.250887 185.41123 158.923911a166.34036 166.34036 0 0 1-76.813224 126.079636z" fill="#46BB36" p-id="9201"></path><path d="M317.847823 379.033793a30.990163 30.990163 0 1 0 61.715452 0 30.72529 30.72529 0 0 0-30.72529-30.725289A30.990163 30.990163 0 0 0 317.847823 379.033793z m236.002008 158.923912a26.487319 26.487319 0 1 0 26.487318-26.487319 26.487319 26.487319 0 0 0-27.811684 26.487319z m-82.110688-158.923912a30.990163 30.990163 0 0 0 29.93067 31.784783 30.460416 30.460416 0 0 0 31.519909-29.93067v-1.854113a30.72529 30.72529 0 0 0-61.450579 0z m205.011846 158.923912a26.487319 26.487319 0 1 0 26.487318-26.487319 26.487319 26.487319 0 0 0-27.811684 26.487319z" fill="#46BB36" p-id="9202"></path></svg>